<svg width="110" height="111" viewBox="0 0 110 111" fill="none" xmlns="http://www.w3.org/2000/svg">
  <path
    d="M88.6022 49.9998L69.9262 63.8478L77.2192 85.9218L77.2153 85.9257C77.4926 86.7382 77.2114 87.6327 76.5161 88.1366C75.8325 88.6561 74.8911 88.6678 74.1958 88.1639L54.9968 74.6369L35.8018 88.1639C35.4658 88.4022 35.0713 88.5311 34.6612 88.535C34.0284 88.5272 33.4346 88.2186 33.0596 87.703C32.6885 87.1913 32.583 86.5311 32.7783 85.9257L40.0713 63.8397L21.3993 49.9997C20.7353 49.4802 20.4735 48.5935 20.7392 47.7927C21.0087 46.9919 21.7548 46.445 22.6025 46.4294H45.8485L53.1219 24.3594C53.3875 23.5469 54.1453 23 55.0008 23C55.8563 23 56.6141 23.5469 56.8797 24.3594L64.1727 46.4294H87.4227C88.2625 46.4528 89.0008 46.9997 89.2625 47.8005C89.5281 48.6013 89.2623 49.4803 88.6022 49.9998Z"
    fill="white" />
</svg>