<svg width="110" height="111" viewBox="0 0 110 111" fill="none" xmlns="http://www.w3.org/2000/svg">
<path d="M87.3989 44.9255H64.9634L57.936 23.6129L57.9357 23.6119C57.5162 22.3485 56.3363 21.5 55.0081 21.5C53.6798 21.5 52.5001 22.3484 52.0805 23.6119L52.0826 23.6133L45.0413 44.9256H22.6035C21.271 44.917 20.083 45.7651 19.6589 47.0281L19.6584 47.0297C19.239 48.2925 19.6765 49.6861 20.7449 50.4793C20.7449 50.4793 20.745 50.4793 20.745 50.4794L38.7711 63.869L31.8663 84.7873L31.7274 85.1809L31.7274 85.1809L31.7253 85.1871C31.3005 86.443 31.738 87.835 32.8125 88.6171C33.8766 89.409 35.3308 89.4266 36.4164 88.6625L36.1312 88.2573L36.4164 88.6624L54.9994 75.5802L73.5634 88.6622C73.5634 88.6622 73.5635 88.6623 73.5636 88.6623C74.0251 88.9878 74.5654 89.183 75.1265 89.2226L75.1474 89.2433L75.3545 89.2423C76.3442 89.2376 77.2668 88.7568 77.8436 87.9566L77.8439 87.9562C78.417 87.1595 78.58 86.1308 78.2771 85.1939L78.2759 85.1903L71.1984 63.8657L89.2356 50.4795C90.2988 49.6915 90.7424 48.3024 90.3228 47.0418C89.9072 45.7778 88.728 44.9311 87.4028 44.9255C87.4021 44.9255 87.4013 44.9255 87.4006 44.9255L87.3989 45.4255V44.9255ZM55.2878 73.0914L55 72.8886L54.712 73.0913L35.152 86.8636C35.1515 86.8639 35.151 86.8643 35.1506 86.8646C34.8471 87.0744 34.445 87.0751 34.1458 86.8698C33.8448 86.6621 33.7043 86.2966 33.7854 85.9473L41.2595 63.3766L41.3732 63.0333L41.0828 62.8179L22.0748 48.7159L22.0748 48.7159L22.0706 48.7128C21.7653 48.4912 21.6401 48.096 21.7622 47.7345L21.7624 47.7346L21.7664 47.7217C21.8761 47.3657 22.2115 47.1216 22.5913 47.129L22.5913 47.1291H22.6011H46.2611H46.6225L46.7358 46.7859L54.1616 24.306L54.1618 24.3053C54.2823 23.939 54.6189 23.696 54.9994 23.696C55.3798 23.696 55.7164 23.939 55.8369 24.3053L55.8372 24.3062L63.2786 46.7862L63.3921 47.1291H63.7533L87.4333 47.1292L87.4431 47.129C87.8181 47.1217 88.1541 47.3649 88.264 47.7217L88.2639 47.7218L88.2682 47.7345C88.3792 48.0632 88.2858 48.4199 88.0412 48.6485L87.9557 48.7119L68.9327 62.8209L68.6425 63.0362L68.7558 63.3794L76.1846 85.8687C76.1848 85.8692 76.185 85.8698 76.1852 85.8704C76.3025 86.2347 76.1755 86.6286 75.8728 86.8501L75.8707 86.8517C75.5659 87.0772 75.153 87.082 74.8382 86.8639C74.8376 86.8635 74.8371 86.8632 74.8365 86.8628L55.2878 73.0914Z" fill="white" stroke="white"/>
</svg>
